<svg xmlns="http://www.w3.org/2000/svg" width="390" height="844" viewBox="0 0 390 844" role="img" aria-labelledby="title desc">
  <title id="title">Wireframe da visualização em Lista do Mapa de Oportunidades</title>
  <desc id="desc">Estado móvel em Lista com localização desativada, posição não acessada, região manual, busca e filtros preservados, ordenação explícita, cartões comparáveis, oportunidade selecionada e retorno ao Mapa sem perda de contexto.</desc>
  <rect width="390" height="844" fill="#ffffff"/>
  <rect x="1" y="1" width="388" height="842" rx="24" fill="none" stroke="#111111" stroke-width="2"/>

  <text x="24" y="29" font-family="Arial, sans-serif" font-size="12" fill="#555555">09:41</text>
  <text x="20" y="62" font-family="Arial, sans-serif" font-size="24" font-weight="700">Mapa</text>
  <rect x="170" y="42" width="200" height="32" rx="16" fill="#f2f2f2" stroke="#777777"/>
  <text x="270" y="62" text-anchor="middle" font-family="Arial, sans-serif" font-size="10">Exploração geral · sem personalização</text>

  <rect x="20" y="84" width="350" height="54" rx="10" fill="#f2f2f2" stroke="#555555"/>
  <text x="34" y="105" font-family="Arial, sans-serif" font-size="10" font-weight="700">Localização desativada · posição não acessada</text>
  <text x="34" y="123" font-family="Arial, sans-serif" font-size="8">Região informada manualmente · não é sua posição</text>
  <text x="356" y="123" text-anchor="end" font-family="Arial, sans-serif" font-size="8" text-decoration="underline">Privacidade</text>

  <rect x="20" y="148" width="350" height="38" rx="8" fill="#ffffff" stroke="#777777"/>
  <text x="34" y="163" font-family="Arial, sans-serif" font-size="7" fill="#555555">REGIÃO SELECIONADA</text>
  <text x="34" y="178" font-family="Arial, sans-serif" font-size="10" font-weight="700">Cidade de exemplo · região central</text>
  <text x="356" y="172" text-anchor="end" font-family="Arial, sans-serif" font-size="8" text-decoration="underline">Alterar</text>

  <rect x="20" y="196" width="350" height="34" rx="8" fill="#ffffff" stroke="#777777"/>
  <circle cx="39" cy="213" r="6" fill="none" stroke="#555555"/>
  <line x1="43" y1="217" x2="49" y2="223" stroke="#555555"/>
  <text x="58" y="217" font-family="Arial, sans-serif" font-size="9" fill="#555555">Buscar oportunidade, Organização ou região</text>

  <rect x="20" y="240" width="174" height="30" rx="7" fill="#ffffff" stroke="#777777"/>
  <text x="107" y="259" text-anchor="middle" font-family="Arial, sans-serif" font-size="10">Mapa</text>
  <rect x="196" y="240" width="174" height="30" rx="7" fill="#222222"/>
  <text x="283" y="259" text-anchor="middle" font-family="Arial, sans-serif" font-size="10" fill="#ffffff">Lista</text>

  <g font-family="Arial, sans-serif" font-size="8">
    <rect x="20" y="280" width="72" height="24" rx="12" fill="#f2f2f2" stroke="#777777"/>
    <text x="56" y="296" text-anchor="middle">Hoje ✓</text>
    <rect x="98" y="280" width="88" height="24" rx="12" fill="#f2f2f2" stroke="#777777"/>
    <text x="142" y="296" text-anchor="middle">Gratuitas ✓</text>
    <rect x="192" y="280" width="92" height="24" rx="12" fill="#ffffff" stroke="#777777"/>
    <text x="238" y="296" text-anchor="middle">Mais filtros · 2</text>
    <text x="370" y="296" text-anchor="end" text-decoration="underline">Limpar</text>
  </g>

  <text x="20" y="323" font-family="Arial, sans-serif" font-size="10" font-weight="700">8 resultados na região selecionada</text>
  <text x="370" y="323" text-anchor="end" font-family="Arial, sans-serif" font-size="8" text-decoration="underline">Atualizar resultados</text>
  <rect x="20" y="334" width="350" height="30" rx="7" fill="#ffffff" stroke="#999999"/>
  <text x="34" y="353" font-family="Arial, sans-serif" font-size="8">Ordenar: correspondência com filtros e data</text>
  <text x="356" y="353" text-anchor="end" font-family="Arial, sans-serif" font-size="8" text-decoration="underline">Alterar</text>

  <rect x="20" y="376" width="350" height="132" rx="11" fill="#ffffff" stroke="#111111" stroke-width="2"/>
  <rect x="286" y="387" width="68" height="20" rx="10" fill="#222222"/>
  <text x="320" y="400" text-anchor="middle" font-family="Arial, sans-serif" font-size="7" fill="#ffffff">Selecionada</text>
  <text x="34" y="397" font-family="Arial, sans-serif" font-size="7" fill="#555555">MENTORIA · HÍBRIDA · REGIÃO CENTRAL</text>
  <text x="34" y="420" font-family="Arial, sans-serif" font-size="14" font-weight="700">Mentoria de carreira</text>
  <text x="356" y="420" text-anchor="end" font-family="Arial, sans-serif" font-size="10" font-weight="700">Gratuita</text>
  <text x="34" y="440" font-family="Arial, sans-serif" font-size="8">Instituto Horizonte · amanhã, 18h · 2 vagas</text>
  <text x="34" y="457" font-family="Arial, sans-serif" font-size="8">Acessibilidade confirmada · resultado desta região</text>
  <text x="34" y="474" font-family="Arial, sans-serif" font-size="8" text-decoration="underline">Por que está aqui?</text>
  <text x="140" y="474" font-family="Arial, sans-serif" font-size="8">Sem patrocínio</text>
  <text x="34" y="495" font-family="Arial, sans-serif" font-size="8" text-decoration="underline">Salvar</text>
  <text x="92" y="495" font-family="Arial, sans-serif" font-size="8" text-decoration="underline">Definir origem</text>
  <rect x="252" y="480" width="104" height="22" rx="6" fill="#222222"/>
  <text x="304" y="495" text-anchor="middle" font-family="Arial, sans-serif" font-size="8" fill="#ffffff">Ver detalhes</text>

  <rect x="20" y="518" width="350" height="108" rx="11" fill="#ffffff" stroke="#777777"/>
  <text x="34" y="539" font-family="Arial, sans-serif" font-size="7" fill="#555555">EVENTO · PRESENCIAL · BAIRRO MODELO</text>
  <text x="34" y="561" font-family="Arial, sans-serif" font-size="13" font-weight="700">Feira de oportunidades</text>
  <text x="356" y="561" text-anchor="end" font-family="Arial, sans-serif" font-size="9" font-weight="700">Gratuita</text>
  <text x="34" y="579" font-family="Arial, sans-serif" font-size="8">Rede Aberta · sábado, 9h–16h · entrada livre</text>
  <text x="34" y="596" font-family="Arial, sans-serif" font-size="8">Parceria identificada · acessibilidade parcial</text>
  <text x="34" y="614" font-family="Arial, sans-serif" font-size="8" text-decoration="underline">Salvar</text>
  <text x="306" y="614" font-family="Arial, sans-serif" font-size="8" text-decoration="underline">Ver detalhes</text>

  <rect x="20" y="636" width="350" height="102" rx="11" fill="#ffffff" stroke="#777777"/>
  <text x="34" y="657" font-family="Arial, sans-serif" font-size="7" fill="#555555">OFICINA · ONLINE · DISPONÍVEL NESTA REGIÃO</text>
  <text x="34" y="679" font-family="Arial, sans-serif" font-size="13" font-weight="700">Currículo e entrevistas</text>
  <text x="356" y="679" text-anchor="end" font-family="Arial, sans-serif" font-size="9" font-weight="700">R$ 25</text>
  <text x="34" y="697" font-family="Arial, sans-serif" font-size="8">Coletivo Caminhos · quinta, 19h · 12 vagas</text>
  <text x="34" y="714" font-family="Arial, sans-serif" font-size="8">Conteúdo geral · relação comercial informada</text>
  <text x="34" y="731" font-family="Arial, sans-serif" font-size="8" text-decoration="underline">Salvar</text>
  <text x="306" y="731" font-family="Arial, sans-serif" font-size="8" text-decoration="underline">Ver detalhes</text>

  <rect x="1" y="752" width="388" height="91" fill="#ffffff" stroke="#cccccc"/>
  <text x="195" y="774" text-anchor="middle" font-family="Arial, sans-serif" font-size="8" fill="#555555">Lista integral · retorne ao Mapa sem perder o contexto</text>
  <g font-family="Arial, sans-serif" font-size="10" text-anchor="middle">
    <text x="39" y="817">Hoje</text>
    <text x="117" y="817">Jornada</text>
    <text x="195" y="817">Explorar</text>
    <text x="273" y="817" font-weight="700">Mapa</text>
    <text x="351" y="817">Eu</text>
  </g>
  <g fill="none" stroke="#555555">
    <circle cx="39" cy="796" r="8"/>
    <rect x="109" y="788" width="16" height="16"/>
    <circle cx="195" cy="796" r="8"/>
    <path d="M265 804 L273 788 L281 804 Z" fill="#222222" stroke="#222222"/>
    <circle cx="351" cy="794" r="6"/>
    <path d="M342 807 Q351 799 360 807"/>
  </g>
</svg>
