<svg xmlns="http://www.w3.org/2000/svg" width="390" height="844" viewBox="0 0 390 844" role="img" aria-labelledby="title desc">
  <title id="title">Lista do Mapa com Área da jornada como filtro explícito e área da oportunidade por item</title>
  <desc id="desc">Estado móvel em Lista que preserva a mesma consulta do Mapa, admite Área da jornada como filtro escolhido pela Pessoa e apresenta domínio como metadado da oportunidade, sem classificação pessoal ou recomendação automática.</desc>
  <rect width="390" height="844" fill="#ffffff"/>
  <rect x="1" y="1" width="388" height="842" rx="24" fill="none" stroke="#111111" stroke-width="2"/>

  <text x="24" y="27" font-family="Arial, sans-serif" font-size="11" fill="#555555">09:41</text>
  <text x="20" y="54" font-family="Arial, sans-serif" font-size="20" font-weight="700">Mapa de Oportunidades</text>
  <text x="20" y="73" font-family="Arial, sans-serif" font-size="8" font-weight="700">LISTA TERRITORIAL DO MAPA · MESMA CONSULTA</text>
  <rect x="252" y="42" width="118" height="29" rx="14" fill="#f2f2f2" stroke="#777777"/>
  <text x="311" y="60" text-anchor="middle" font-family="Arial, sans-serif" font-size="8">Sem personalização</text>

  <rect x="20" y="82" width="350" height="28" rx="7" fill="#ffffff" stroke="#777777"/>
  <text x="32" y="100" font-family="Arial, sans-serif" font-size="8" font-weight="700">Agindo como: Pessoa</text>
  <text x="356" y="100" text-anchor="end" font-family="Arial, sans-serif" font-size="8" text-decoration="underline">Alterar</text>

  <rect x="20" y="118" width="350" height="45" rx="9" fill="#f2f2f2" stroke="#555555"/>
  <text x="32" y="137" font-family="Arial, sans-serif" font-size="9" font-weight="700">Localização desativada · posição não acessada</text>
  <text x="32" y="153" font-family="Arial, sans-serif" font-size="7">Região manual · não é sua posição</text>
  <text x="356" y="153" text-anchor="end" font-family="Arial, sans-serif" font-size="7" text-decoration="underline">Privacidade</text>

  <rect x="20" y="171" width="350" height="35" rx="7" fill="#ffffff" stroke="#777777"/>
  <text x="32" y="184" font-family="Arial, sans-serif" font-size="6" fill="#555555">REGIÃO SELECIONADA</text>
  <text x="32" y="199" font-family="Arial, sans-serif" font-size="9" font-weight="700">Cidade de exemplo · região central</text>
  <text x="356" y="194" text-anchor="end" font-family="Arial, sans-serif" font-size="7" text-decoration="underline">Alterar</text>

  <rect x="20" y="214" width="350" height="31" rx="7" fill="#ffffff" stroke="#777777"/>
  <circle cx="38" cy="229" r="5" fill="none" stroke="#555555"/>
  <line x1="42" y1="233" x2="47" y2="238" stroke="#555555"/>
  <text x="55" y="233" font-family="Arial, sans-serif" font-size="8" fill="#555555">Buscar nesta região</text>

  <rect x="20" y="253" width="174" height="28" rx="7" fill="#ffffff" stroke="#777777"/>
  <text x="107" y="271" text-anchor="middle" font-family="Arial, sans-serif" font-size="9">Mapa</text>
  <rect x="196" y="253" width="174" height="28" rx="7" fill="#222222"/>
  <text x="283" y="271" text-anchor="middle" font-family="Arial, sans-serif" font-size="9" fill="#ffffff">Lista</text>

  <text x="20" y="297" font-family="Arial, sans-serif" font-size="8" font-weight="700">4 filtros ativos</text>
  <g font-family="Arial, sans-serif" font-size="7">
    <rect x="92" y="285" width="55" height="19" rx="9" fill="#f2f2f2" stroke="#777777"/>
    <text x="119" y="298" text-anchor="middle">Hoje ✓</text>
    <rect x="152" y="285" width="69" height="19" rx="9" fill="#f2f2f2" stroke="#777777"/>
    <text x="186" y="298" text-anchor="middle">Gratuitas ✓</text>
    <rect x="226" y="285" width="74" height="19" rx="9" fill="#ffffff" stroke="#777777"/>
    <text x="263" y="298" text-anchor="middle">Área + mais 2</text>
    <text x="370" y="298" text-anchor="end" text-decoration="underline">Limpar</text>
  </g>

  <text x="20" y="319" font-family="Arial, sans-serif" font-size="9" font-weight="700">8 resultados · região selecionada</text>
  <text x="370" y="319" text-anchor="end" font-family="Arial, sans-serif" font-size="7">Atualizados há instantes · <tspan text-decoration="underline">Atualizar</tspan></text>
  <rect x="20" y="328" width="350" height="29" rx="7" fill="#ffffff" stroke="#999999"/>
  <text x="32" y="342" font-family="Arial, sans-serif" font-size="7">Área é escolhida no filtro; nunca aplicada silenciosamente.</text>
  <text x="356" y="351" text-anchor="end" font-family="Arial, sans-serif" font-size="7" text-decoration="underline">Entender filtros</text>

  <rect x="20" y="367" width="350" height="134" rx="10" fill="#ffffff" stroke="#111111" stroke-width="2"/>
  <rect x="234" y="377" width="122" height="18" rx="9" fill="#222222"/>
  <text x="295" y="389" text-anchor="middle" font-family="Arial, sans-serif" font-size="6" fill="#ffffff">Selecionada · preservada do Mapa</text>
  <text x="32" y="389" font-family="Arial, sans-serif" font-size="6" fill="#555555">MENTORIA · HÍBRIDA · REGIÃO CENTRAL</text>
  <text x="32" y="414" font-family="Arial, sans-serif" font-size="13" font-weight="700">Mentoria de carreira</text>
  <text x="356" y="414" text-anchor="end" font-family="Arial, sans-serif" font-size="9" font-weight="700">Gratuita</text>
  <text x="32" y="432" font-family="Arial, sans-serif" font-size="7">Instituto Horizonte · amanhã, 18h · 2 vagas</text>
  <text x="32" y="448" font-family="Arial, sans-serif" font-size="7" font-weight="700">Área: Trabalho, carreira e estudos</text>
  <text x="32" y="464" font-family="Arial, sans-serif" font-size="7">Acessibilidade: confirmada · área declarada pela Organização</text>
  <text x="32" y="480" font-family="Arial, sans-serif" font-size="7" text-decoration="underline">Por que está aqui?</text>
  <text x="141" y="480" font-family="Arial, sans-serif" font-size="7">Domínio isolado não determina relevância</text>
  <text x="32" y="493" font-family="Arial, sans-serif" font-size="7" text-decoration="underline">Salvar</text>
  <text x="88" y="493" font-family="Arial, sans-serif" font-size="7" text-decoration="underline">Definir origem</text>
  <rect x="252" y="474" width="104" height="21" rx="6" fill="#222222"/>
  <text x="304" y="488" text-anchor="middle" font-family="Arial, sans-serif" font-size="7" fill="#ffffff">Ver detalhes</text>

  <rect x="20" y="510" width="350" height="104" rx="10" fill="#ffffff" stroke="#777777"/>
  <text x="32" y="527" font-family="Arial, sans-serif" font-size="6" fill="#555555">EVENTO · PRESENCIAL · BAIRRO MODELO</text>
  <text x="32" y="548" font-family="Arial, sans-serif" font-size="12" font-weight="700">Feira de oportunidades</text>
  <text x="356" y="548" text-anchor="end" font-family="Arial, sans-serif" font-size="8" font-weight="700">Gratuita</text>
  <text x="32" y="565" font-family="Arial, sans-serif" font-size="7">Rede Aberta · sábado, 9h–16h · entrada livre</text>
  <text x="32" y="581" font-family="Arial, sans-serif" font-size="7">Área e acessibilidade disponíveis nos detalhes</text>
  <text x="32" y="598" font-family="Arial, sans-serif" font-size="7" text-decoration="underline">Por que está aqui?</text>
  <text x="141" y="598" font-family="Arial, sans-serif" font-size="7">Relação comercial: parceria identificada</text>
  <text x="356" y="598" text-anchor="end" font-family="Arial, sans-serif" font-size="7" text-decoration="underline">Ver detalhes</text>

  <rect x="20" y="623" width="350" height="104" rx="10" fill="#ffffff" stroke="#777777"/>
  <text x="32" y="640" font-family="Arial, sans-serif" font-size="6" fill="#555555">OFICINA · ONLINE · DISPONÍVEL NA REGIÃO</text>
  <text x="32" y="661" font-family="Arial, sans-serif" font-size="12" font-weight="700">Currículo e entrevistas</text>
  <text x="356" y="661" text-anchor="end" font-family="Arial, sans-serif" font-size="8" font-weight="700">R$ 25</text>
  <text x="32" y="678" font-family="Arial, sans-serif" font-size="7">Coletivo Caminhos · quinta, 19h · 12 vagas</text>
  <text x="32" y="694" font-family="Arial, sans-serif" font-size="7">Área e acessibilidade disponíveis nos detalhes</text>
  <text x="32" y="711" font-family="Arial, sans-serif" font-size="7" text-decoration="underline">Por que está aqui?</text>
  <text x="141" y="711" font-family="Arial, sans-serif" font-size="7">Relação comercial: conteúdo patrocinado</text>
  <text x="356" y="711" text-anchor="end" font-family="Arial, sans-serif" font-size="7" text-decoration="underline">Ver detalhes</text>

  <rect x="1" y="738" width="388" height="105" fill="#ffffff" stroke="#cccccc"/>
  <text x="195" y="758" text-anchor="middle" font-family="Arial, sans-serif" font-size="7" fill="#555555">Lista integral · funciona sem carregar o mapa</text>
  <g font-family="Arial, sans-serif" font-size="10" text-anchor="middle">
    <text x="39" y="817">Hoje</text>
    <text x="117" y="817">Jornada</text>
    <text x="195" y="817">Explorar</text>
    <text x="273" y="817" font-weight="700">Mapa</text>
    <text x="351" y="817">Eu</text>
  </g>
  <g fill="none" stroke="#555555">
    <circle cx="39" cy="796" r="8"/>
    <rect x="109" y="788" width="16" height="16"/>
    <circle cx="195" cy="796" r="8"/>
    <path d="M265 804 L273 788 L281 804 Z" fill="#222222" stroke="#222222"/>
    <circle cx="351" cy="794" r="6"/>
    <path d="M342 807 Q351 799 360 807"/>
  </g>
</svg>
